HIERARCHY
ROOT Hips
{
    OFFSET   0.000000   0.000000   0.000000
    CHANNELS 6 Xposition Yposition Zposition Zrotation Xrotation Yrotation
    JOINT Chest
    {
        OFFSET   0.000000   8.007230   0.000000
        CHANNELS 3 Zrotation Xrotation Yrotation
        JOINT Chest2
        {
            OFFSET   0.000000  22.077100   0.000000
            CHANNELS 3 Zrotation Xrotation Yrotation
            JOINT Neck
            {
                OFFSET   0.000000  23.255100   0.000000
                CHANNELS 3 Zrotation Xrotation Yrotation
                JOINT Head
                {
                    OFFSET   0.000000  14.370100   1.956600
                    CHANNELS 3 Zrotation Xrotation Yrotation
                    End Site
                    {
                        OFFSET   0.000000  19.566000   0.000000
                    }
                }
            }
            JOINT LeftCollar
            {
                OFFSET   3.911900  19.017000  -0.467063
                CHANNELS 3 Zrotation Xrotation Yrotation
                JOINT LeftShoulder
                {
                    OFFSET  10.383700   0.000000   0.000000
                    CHANNELS 3 Zrotation Xrotation Yrotation
                    JOINT LeftElbow
                    {
                        OFFSET  26.662100   0.001193   0.000980
                        CHANNELS 3 Zrotation Xrotation Yrotation
                        JOINT LeftWrist
                        {
                            OFFSET  28.869000  -0.000059  -0.000082
                            CHANNELS 3 Zrotation Xrotation Yrotation
                            JOINT LeftFinger0
                            {
                                OFFSET   2.044650  -2.323450   3.252850
                                CHANNELS 3 Zrotation Xrotation Yrotation
                                JOINT LeftFinger01
                                {
                                    OFFSET   3.088130   0.000000   0.000000
                                    CHANNELS 3 Zrotation Xrotation Yrotation
                                    JOINT LeftFinger02
                                    {
                                        OFFSET   2.639460   0.000000   0.000000
                                        CHANNELS 3 Zrotation Xrotation Yrotation
                                        End Site
                                        {
                                            OFFSET   2.582190   0.000000   0.000000
                                        }
                                    }
                                }
                            }
                            JOINT LeftFinger1
                            {
                                OFFSET   8.364480   0.000000   3.252850
                                CHANNELS 3 Zrotation Xrotation Yrotation
                                JOINT LeftFinger11
                                {
                                    OFFSET   4.646930   0.000000   0.000000
                                    CHANNELS 3 Zrotation Xrotation Yrotation
                                    JOINT LeftFinger12
                                    {
                                        OFFSET   2.323470   0.000000   0.000000
                                        CHANNELS 3 Zrotation Xrotation Yrotation
                                        End Site
                                        {
                                            OFFSET   2.273050   0.000000   0.000000
                                        }
                                    }
                                }
                            }
                            JOINT LeftFinger2
                            {
                                OFFSET   8.364490   0.000016   1.078090
                                CHANNELS 3 Zrotation Xrotation Yrotation
                                JOINT LeftFinger21
                                {
                                    OFFSET   5.111610   0.000000   0.000000
                                    CHANNELS 3 Zrotation Xrotation Yrotation
                                    JOINT LeftFinger22
                                    {
                                        OFFSET   2.788150   0.000016   0.000000
                                        CHANNELS 3 Zrotation Xrotation Yrotation
                                        End Site
                                        {
                                            OFFSET   2.727660   0.000000   0.000000
                                        }
                                    }
                                }
                            }
                            JOINT LeftFinger3
                            {
                                OFFSET   7.899780   0.000015  -1.078090
                                CHANNELS 3 Zrotation Xrotation Yrotation
                                JOINT LeftFinger31
                                {
                                    OFFSET   4.646930   0.000000   0.000000
                                    CHANNELS 3 Zrotation Xrotation Yrotation
                                    JOINT LeftFinger32
                                    {
                                        OFFSET   2.323470   0.000000   0.000000
                                        CHANNELS 3 Zrotation Xrotation Yrotation
                                        End Site
                                        {
                                            OFFSET   2.273050   0.000000   0.000000
                                        }
                                    }
                                }
                            }
                            JOINT LeftFinger4
                            {
                                OFFSET   7.435090   0.000000  -3.252850
                                CHANNELS 3 Zrotation Xrotation Yrotation
                                JOINT LeftFinger41
                                {
                                    OFFSET   3.717550   0.000000   0.000000
                                    CHANNELS 3 Zrotation Xrotation Yrotation
                                    JOINT LeftFinger42
                                    {
                                        OFFSET   1.858770   0.000000   0.000000
                                        CHANNELS 3 Zrotation Xrotation Yrotation
                                        End Site
                                        {
                                            OFFSET   1.818440   0.000000   0.000000
                                        }
                                    }
                                }
                            }
                        }
                    }
                }
            }
            JOINT RightCollar
            {
                OFFSET  -3.911910  19.017000  -0.467062
                CHANNELS 3 Zrotation Xrotation Yrotation
                JOINT RightShoulder
                {
                    OFFSET -10.383700   0.000014   0.000000
                    CHANNELS 3 Zrotation Xrotation Yrotation
                    JOINT RightElbow
                    {
                        OFFSET -26.662100   0.001225   0.001091
                        CHANNELS 3 Zrotation Xrotation Yrotation
                        JOINT RightWrist
                        {
                            OFFSET -28.869000  -0.000020  -0.000085
                            CHANNELS 3 Zrotation Xrotation Yrotation
                            JOINT RightFinger0
                            {
                                OFFSET  -2.044650  -2.323490   3.252850
                                CHANNELS 3 Zrotation Xrotation Yrotation
                                JOINT RightFinger01
                                {
                                    OFFSET  -3.088130   0.000000   0.000000
                                    CHANNELS 3 Zrotation Xrotation Yrotation
                                    JOINT RightFinger02
                                    {
                                        OFFSET  -2.639460   0.000000   0.000000
                                        CHANNELS 3 Zrotation Xrotation Yrotation
                                        End Site
                                        {
                                            OFFSET  -2.582190   0.000000   0.000000
                                        }
                                    }
                                }
                            }
                            JOINT RightFinger1
                            {
                                OFFSET  -8.364480   0.000000   3.252850
                                CHANNELS 3 Zrotation Xrotation Yrotation
                                JOINT RightFinger11
                                {
                                    OFFSET  -4.646930   0.000000   0.000000
                                    CHANNELS 3 Zrotation Xrotation Yrotation
                                    JOINT RightFinger12
                                    {
                                        OFFSET  -2.323470   0.000000   0.000000
                                        CHANNELS 3 Zrotation Xrotation Yrotation
                                        End Site
                                        {
                                            OFFSET  -2.273050   0.000000   0.000000
                                        }
                                    }
                                }
                            }
                            JOINT RightFinger2
                            {
                                OFFSET  -8.364480   0.000000   1.078090
                                CHANNELS 3 Zrotation Xrotation Yrotation
                                JOINT RightFinger21
                                {
                                    OFFSET  -5.111620   0.000000   0.000000
                                    CHANNELS 3 Zrotation Xrotation Yrotation
                                    JOINT RightFinger22
                                    {
                                        OFFSET  -2.788160   0.000000   0.000000
                                        CHANNELS 3 Zrotation Xrotation Yrotation
                                        End Site
                                        {
                                            OFFSET  -2.727660   0.000000   0.000000
                                        }
                                    }
                                }
                            }
                            JOINT RightFinger3
                            {
                                OFFSET  -7.899780   0.000000  -1.078090
                                CHANNELS 3 Zrotation Xrotation Yrotation
                                JOINT RightFinger31
                                {
                                    OFFSET  -4.646930   0.000000   0.000000
                                    CHANNELS 3 Zrotation Xrotation Yrotation
                                    JOINT RightFinger32
                                    {
                                        OFFSET  -2.323470   0.000000   0.000000
                                        CHANNELS 3 Zrotation Xrotation Yrotation
                                        End Site
                                        {
                                            OFFSET  -2.273050   0.000000   0.000000
                                        }
                                    }
                                }
                            }
                            JOINT RightFinger4
                            {
                                OFFSET  -7.435090   0.000000  -3.252850
                                CHANNELS 3 Zrotation Xrotation Yrotation
                                JOINT RightFinger41
                                {
                                    OFFSET  -3.717550   0.000000   0.000000
                                    CHANNELS 3 Zrotation Xrotation Yrotation
                                    JOINT RightFinger42
                                    {
                                        OFFSET  -1.858760   0.000000   0.000000
                                        CHANNELS 3 Zrotation Xrotation Yrotation
                                        End Site
                                        {
                                            OFFSET  -1.818440   0.000000   0.000000
                                        }
                                    }
                                }
                            }
                        }
                    }
                }
            }
        }
    }
    JOINT LeftHip
    {
        OFFSET   9.783030   0.000000   0.000000
        CHANNELS 3 Zrotation Xrotation Yrotation
        JOINT LeftKnee
        {
            OFFSET   0.000063 -41.789100   0.000608
            CHANNELS 3 Zrotation Xrotation Yrotation
            JOINT LeftAnkle
            {
                OFFSET   0.000048 -41.133200  -0.000184
                CHANNELS 3 Zrotation Xrotation Yrotation
                JOINT LeftToe
                {
                    OFFSET   0.000000  -6.358960  14.674500
                    CHANNELS 3 Zrotation Xrotation Yrotation
                    End Site
                    {
                        OFFSET   0.000000   0.000000   3.913200
                    }
                }
            }
        }
    }
    JOINT RightHip
    {
        OFFSET  -9.783030   0.000000   0.000000
        CHANNELS 3 Zrotation Xrotation Yrotation
        JOINT RightKnee
        {
            OFFSET   0.000071 -41.789100   0.001239
            CHANNELS 3 Zrotation Xrotation Yrotation
            JOINT RightAnkle
            {
                OFFSET   0.000037 -41.133200  -0.000166
                CHANNELS 3 Zrotation Xrotation Yrotation
                JOINT RightToe
                {
                    OFFSET   0.000000  -6.358960  14.674500
                    CHANNELS 3 Zrotation Xrotation Yrotation
                    End Site
                    {
                        OFFSET   0.000000   0.000000   3.913200
                    }
                }
            }
        }
    }
}
MOTION
Frames: 4
Frame Time:   0.016667
 -0.251902  89.721600   0.370294   0.400729  -2.805780   1.259750   0.384479   2.893540  -0.997508   0.820977   5.779850  -2.018320   1.214940  -0.743215   0.022159   1.994010  -1.505200   3.845490  -7.943760  -3.146150   5.730610 -68.914000  23.824700   1.981470  -4.031610  -6.840640 -13.067800  12.459300 -13.838500   4.234030  71.101300  51.792400 -110.261000   4.446180   0.002223  -0.000087   7.229880   0.001793   0.005639 -35.810200   2.373350  -3.273170 -29.359500   0.006538   0.002075 -20.535600   0.001152   0.003051 -30.656100  -3.729260   6.262580 -46.290300   0.001445   0.000943 -30.829300  -0.001843   0.003670 -28.469000  -3.480140   6.400080 -38.352600   0.013051  -0.002324 -25.551400   0.006401  -0.002036 -32.203100  -3.903080   6.159440 -48.613400   0.002970  -0.014478 -32.381100   0.003604   0.000200  10.702100   1.210410  10.919900  66.697500  11.822500  -3.737280   3.501120  -7.212170   7.894340 -14.236100 -18.377000  -1.807470 -34.287900  14.710100  48.055600  29.562100   0.005974  -0.005729   9.782070   0.000876  -0.014139  35.621400   4.944010   6.858770  29.387300   0.004560   0.003393  20.568300  -0.003986   0.002447  28.229600  -1.241300  -2.333230  33.802300   0.003267  -0.001807  22.512400   0.012428  -0.008757  28.390300  -1.247820  -2.329520  35.334400  -0.001524   0.001746  23.532700   0.000142   0.007370  30.716800  -1.341230  -2.276550  46.127400   0.001068  -0.001516  30.712500   0.000089  -0.001036  -0.342809   1.167630   2.618590   1.416830   3.260320  12.357100  -4.560750  -2.593480   3.989650  -0.000000   0.000000  -0.000000   2.936220   1.606470  -5.595000  -2.237920   3.416210  -6.882300  -5.413390  -1.069230  -1.814830   0.000000   0.000000   0.000000
 -0.257639  89.721600   0.375529   0.401109  -2.805770   1.266930   0.384500   2.893460  -0.994231   0.820855   5.779730  -2.011760   1.213780  -0.737318   0.022175   1.992810  -1.493250   3.854160  -7.938310  -3.146400   5.728270 -68.907900  23.830000   1.965610  -4.023760  -6.837140 -13.067600  12.452400 -13.831200   4.233900  71.101400  51.792400 -110.261000   4.444690   0.002216  -0.000086   7.226170   0.001777   0.005640 -35.806500   2.369340  -3.272680 -29.353800   0.006538   0.002072 -20.535200   0.001148   0.003049 -30.651400  -3.729270   6.262560 -46.283200   0.001446   0.000940 -30.824600  -0.001844   0.003668 -28.469000  -3.480140   6.400080 -38.348300   0.013053  -0.002325 -25.544700   0.006403  -0.002036 -32.197600  -3.903080   6.159430 -48.608100   0.002970  -0.014480 -32.375500   0.003602   0.000198  10.701500   1.214180  10.915000  66.711100  11.806800  -3.755540   3.499120  -7.205780   7.884550 -14.236300 -18.393000  -1.807640 -34.279800  14.705500  48.072400  29.562100   0.005971  -0.005725   9.782090   0.000871  -0.014143  35.626100   4.947850   6.862850  29.391500   0.004558   0.003396  20.572500  -0.003988   0.002449  28.229700  -1.241220  -2.329360  33.818200   0.003265  -0.001804  22.523000   0.012429  -0.008754  28.390500  -1.247750  -2.325680  35.327000  -0.001520   0.001743  23.527800   0.000138   0.007364  30.722500  -1.341200  -2.272680  46.130300   0.001067  -0.001522  30.718100   0.000089  -0.001039  -0.343400   1.263940   2.618660   1.414010   3.158000  12.358600  -4.560970  -2.593530   3.983160  -0.000000   0.000000  -0.000000   2.943970   1.604510  -5.597180  -2.241060   3.421540  -6.884240  -5.413650  -1.073450  -1.814860   0.000000   0.000000  -0.000000
 -0.266381  89.721600   0.384092   0.401527  -2.805760   1.274110   0.384516   2.893390  -0.988782   0.820609   5.779630  -2.000840   1.209500  -0.729019   0.022201   1.987850  -1.476410   3.872950  -7.931020  -3.146670   5.723200 -68.897600  23.835600   1.939330  -4.011480  -6.830400 -13.067200  12.445400 -13.823800   4.233790  71.101700  51.792300 -110.261000   4.438420   0.002195  -0.000086   7.219210   0.001746   0.005640 -35.801600   2.361270  -3.269300 -29.347400   0.006536   0.002065 -20.534900   0.001139   0.003043 -30.645100  -3.729280   6.262530 -46.273700   0.001448   0.000936 -30.818300  -0.001846   0.003662 -28.469200  -3.480150   6.400080 -38.342200   0.013058  -0.002329 -25.535900   0.006409  -0.002036 -32.190000  -3.903080   6.159420 -48.600500   0.002970  -0.014488 -32.367900   0.003599   0.000193  10.700600   1.219760  10.906400  66.726700  11.791000  -3.783560   3.496680  -7.199470   7.870580 -14.234700 -18.408900  -1.807820 -34.266500  14.698000  48.099800  29.562000   0.005960  -0.005722   9.782140   0.000867  -0.014148  35.632400   4.955240   6.871390  29.397300   0.004548   0.003404  20.578100  -0.003991   0.002454  28.229800  -1.241150  -2.322100  33.842900   0.003259  -0.001794  22.539400   0.012432  -0.008747  28.390800  -1.247690  -2.318490  35.316000  -0.001511   0.001734  23.520500   0.000117   0.007346  30.730000  -1.341170  -2.265490  46.134600   0.001064  -0.001537  30.725600   0.000091  -0.001047  -0.344080   1.381490   2.618620   1.407490   3.046820  12.362400  -4.561280  -2.593770   3.974260   0.000000   0.000000  -0.000000   2.955170   1.602550  -5.602180  -2.246100   3.430870  -6.886200  -5.414800  -1.080680  -1.814890  -0.000000   0.000000   0.000000
 -0.271574  89.721500   0.390675   0.401636  -2.806690   1.273910   0.384475   2.893630  -0.983376   0.820251   5.780130  -1.990010   1.200340  -0.725304   0.022222   1.973600  -1.468830   3.896830  -7.929240  -3.145210   5.714630 -68.888500  23.831800   1.918290  -4.003310  -6.820970 -13.067000  12.451800 -13.825000   4.239850  71.103900  51.792200 -110.261000   4.423060   0.002160  -0.000102   7.209950   0.001713   0.005639 -35.800900   2.349010  -3.255060 -29.346400   0.006530   0.002054 -20.537100   0.001129   0.003032 -30.643300  -3.729310   6.262490 -46.270900   0.001452   0.000929 -30.816400  -0.001850   0.003654 -28.469300  -3.480160   6.400070 -38.339200   0.013067  -0.002336 -25.533500   0.006417  -0.002036 -32.187200  -3.903080   6.159400 -48.596600   0.002968  -0.014501 -32.365100   0.003595   0.000186  10.702600   1.222830  10.897200  66.730400  11.790900  -3.803240   3.496230  -7.200720   7.864290 -14.221200 -18.408900  -1.802030 -34.262100  14.695600  48.126600  29.561900   0.005940  -0.005731   9.782190   0.000871  -0.014141  35.634300   4.965120   6.882910  29.399700   0.004529   0.003416  20.579900  -0.003995   0.002461  28.230000  -1.241380  -2.312460  33.862200   0.003250  -0.001778  22.552200   0.012438  -0.008735  28.391000  -1.247890  -2.308930  35.312700  -0.001496   0.001719  23.518300   0.000049   0.007317  30.732400  -1.341290  -2.256080  46.137500   0.001059  -0.001559  30.728000   0.000094  -0.001060  -0.344133   1.406270   2.616390   1.402940   3.036440  12.369200  -4.561130  -2.598310   3.971150   0.000000   0.000000   0.000000   2.961190   1.604510  -5.611240  -2.251050   3.440390  -6.878690  -5.419140  -1.087990  -1.814720   0.000000   0.000000   0.000000
